<?xml version="1.0" encoding="UTF-8" standalone="no"?>
<svg
   xmlns:dc="http://purl.org/dc/elements/1.1/"
   xmlns:cc="http://creativecommons.org/ns#"
   xmlns:rdf="http://www.w3.org/1999/02/22-rdf-syntax-ns#"
   xmlns:svg="http://www.w3.org/2000/svg"
   xmlns="http://www.w3.org/2000/svg"
   xmlns:sodipodi="http://sodipodi.sourceforge.net/DTD/sodipodi-0.dtd"
   xmlns:inkscape="http://www.inkscape.org/namespaces/inkscape"
   inkscape:export-ydpi="96"
   inkscape:export-xdpi="96"
   inkscape:export-filename="/home/entity/github/Pixelorama/assets/graphics/vector_themes/palette/edit_palette.png"
   sodipodi:docname="edit_palette.svg"
   inkscape:version="1.0 (4035a4f, 2020-05-01)"
   id="svg1487"
   version="1.1"
   viewBox="0 0 6.3499999 6.3499999"
   height="24"
   width="24">
  <defs
     id="defs1481" />
  <sodipodi:namedview
     inkscape:window-maximized="1"
     inkscape:window-y="0"
     inkscape:window-x="1440"
     inkscape:window-height="1007"
     inkscape:window-width="1920"
     inkscape:snap-object-midpoints="true"
     inkscape:snap-bbox-midpoints="true"
     inkscape:snap-bbox="false"
     inkscape:pagecheckerboard="true"
     width="24px"
     units="px"
     showgrid="true"
     inkscape:document-rotation="0"
     inkscape:current-layer="layer1"
     inkscape:document-units="px"
     inkscape:cy="15.684485"
     inkscape:cx="2.9319443"
     inkscape:zoom="22.627417"
     inkscape:pageshadow="2"
     inkscape:pageopacity="0.0"
     borderopacity="1.0"
     bordercolor="#666666"
     pagecolor="#ffffff"
     id="base">
    <inkscape:grid
       spacingy="0.13229166"
       spacingx="0.13229166"
       id="grid2050"
       type="xygrid" />
  </sodipodi:namedview>
  <metadata
     id="metadata1484">
    <rdf:RDF>
      <cc:Work
         rdf:about="">
        <dc:format>image/svg+xml</dc:format>
        <dc:type
           rdf:resource="http://purl.org/dc/dcmitype/StillImage" />
        <dc:title></dc:title>
      </cc:Work>
    </rdf:RDF>
  </metadata>
  <g
     id="layer1"
     inkscape:groupmode="layer"
     inkscape:label="Layer 1">
    <path
       d="M 3.6062509,5.6512702 A 2.5135417,2.5135417 0 0 1 0.96387718,4.3703359 2.5135417,2.5135417 0 0 1 1.3393393,1.4579554 2.5135417,2.5135417 0 0 1 4.2201904,0.8890715 a 2.5135417,2.5135417 0 0 1 1.45433,2.55105"
       sodipodi:arc-type="arc"
       sodipodi:open="true"
       sodipodi:end="0.10567383"
       sodipodi:start="1.3983722"
       sodipodi:ry="2.5135417"
       sodipodi:rx="2.5135417"
       sodipodi:cy="3.175"
       sodipodi:cx="3.175"
       sodipodi:type="arc"
       id="path2054"
       style="opacity:0.999;fill:none;stroke:#9ca0a7;stroke-width:0.529167;stroke-linecap:round;stroke-linejoin:bevel;stroke-miterlimit:4;stroke-dasharray:none;stroke-opacity:1;paint-order:normal" />
    <path
       d="M 4.8807535,2.3926816 A 0.5291667,0.5291667 0 0 1 4.3525104,2.9218475 0.5291667,0.5291667 0 0 1 3.8224233,2.3945287 0.5291667,0.5291667 0 0 1 4.3488161,1.8635222 0.5291667,0.5291667 0 0 1 4.8807406,2.3889874"
       sodipodi:arc-type="arc"
       sodipodi:open="true"
       sodipodi:end="6.276204"
       sodipodi:start="0"
       sodipodi:ry="0.5291667"
       sodipodi:rx="0.5291667"
       sodipodi:cy="2.3926816"
       sodipodi:cx="4.3515868"
       sodipodi:type="arc"
       id="path2056"
       style="opacity:0.999;fill:#c7cad3;fill-opacity:1;stroke:none;stroke-width:0.529167;stroke-linecap:round;stroke-linejoin:bevel;stroke-miterlimit:4;stroke-dasharray:none;paint-order:normal" />
    <path
       style="opacity:0.999;fill:#c7cad3;fill-opacity:1;stroke:none;stroke-width:0.529167;stroke-linecap:round;stroke-linejoin:bevel;stroke-miterlimit:4;stroke-dasharray:none;paint-order:normal"
       id="path2058"
       sodipodi:type="arc"
       sodipodi:cx="2.9790974"
       sodipodi:cy="1.7880144"
       sodipodi:rx="0.5291667"
       sodipodi:ry="0.5291667"
       sodipodi:start="0"
       sodipodi:end="6.276204"
       sodipodi:open="true"
       sodipodi:arc-type="arc"
       d="M 3.5082641,1.7880144 A 0.5291667,0.5291667 0 0 1 2.9800209,2.3171803 0.5291667,0.5291667 0 0 1 2.4499339,1.7898615 0.5291667,0.5291667 0 0 1 2.9763267,1.258855 0.5291667,0.5291667 0 0 1 3.5082512,1.7843202" />
    <path
       d="M 2.4012631,2.7017863 A 0.5291667,0.5291667 0 0 1 1.87302,3.2309522 0.5291667,0.5291667 0 0 1 1.3429329,2.7036334 0.5291667,0.5291667 0 0 1 1.8693257,2.1726268 0.5291667,0.5291667 0 0 1 2.4012502,2.698092"
       sodipodi:arc-type="arc"
       sodipodi:open="true"
       sodipodi:end="6.276204"
       sodipodi:start="0"
       sodipodi:ry="0.5291667"
       sodipodi:rx="0.5291667"
       sodipodi:cy="2.7017863"
       sodipodi:cx="1.8720964"
       sodipodi:type="arc"
       id="path2060"
       style="opacity:0.999;fill:#c7cad3;fill-opacity:1;stroke:none;stroke-width:0.529167;stroke-linecap:round;stroke-linejoin:bevel;stroke-miterlimit:4;stroke-dasharray:none;paint-order:normal" />
    <path
       d="M 5.4239582,4.6302085 A 0.66145837,0.66145867 0 0 1 4.7636543,5.2916662 0.66145837,0.66145867 0 0 1 4.1010455,4.6325174 0.66145837,0.66145867 0 0 1 4.7590364,3.9687589 0.66145837,0.66145867 0 0 1 5.4239421,4.6255907"
       sodipodi:arc-type="arc"
       sodipodi:open="true"
       sodipodi:end="6.276204"
       sodipodi:start="0"
       sodipodi:ry="0.66145867"
       sodipodi:rx="0.66145837"
       sodipodi:cy="4.6302085"
       sodipodi:cx="4.7624998"
       sodipodi:type="arc"
       id="path2088"
       style="opacity:0.999;fill:none;fill-opacity:1;stroke:#9ca0a7;stroke-width:0.529167;stroke-linecap:round;stroke-linejoin:bevel;stroke-miterlimit:4;stroke-dasharray:none;stroke-opacity:1;paint-order:normal" />
  </g>
</svg>
